<?xml version="1.0" encoding="UTF-8"?>
<svg id="ri" xmlns="http://www.w3.org/2000/svg" viewBox="0 0 1186.14 203.56" width="320" height="56">
  <rect width="1186.14" height="203.56" style="fill: #fff; stroke-width: 0px;"/>
  <g>
    <rect x="139.44" y="125.28" width="106.16" height="47.32" transform="translate(43.57 341.46) rotate(-90)" style="fill: #b00; stroke-width: 0px;"/>
    <path d="M121.51,185.8v16.23H55.03v-58.93h23.78c23.6,0,42.7,19.13,42.7,42.7Z" style="fill: #b00; stroke-width: 0px;"/>
    <path d="M121.51,71.97c0,6.58-2.65,12.53-6.98,16.83-4.3,4.3-10.23,6.98-16.8,6.98h-42.7v-47.58h42.7c13.13,0,23.78,10.65,23.78,23.78Z" style="fill: #b00; stroke-width: 0px;"/>
    <circle cx="192.55" cy="24.54" r="23.7" style="fill: #b00; stroke-width: 0px;"/>
  </g>
  <g>
    <g>
      <path d="M301.39,143.54c4.62,0,8.48.51,11.58,1.51,3.09,1.01,5.43,2.67,6.99,4.98,1.57,2.31,2.35,5.43,2.35,9.37,0,2.95-.54,5.48-1.61,7.59-1.08,2.11-2.56,3.85-4.44,5.2-1.89,1.35-4.06,2.39-6.54,3.11l15.98,26.5h-4.86l-15.02-25.35h-14.47v25.35h-4.1v-58.26h14.15ZM300.99,147.17h-9.64v25.66h11.6c4.76,0,8.47-1.14,11.14-3.43,2.67-2.28,4.01-5.57,4.01-9.84,0-4.7-1.41-7.94-4.22-9.72-2.82-1.78-7.11-2.67-12.87-2.67Z" style="stroke-width: 0px;"/>
      <path d="M366.79,180.09c0,3.35-.41,6.4-1.24,9.15-.82,2.75-2.05,5.12-3.67,7.11-1.62,1.99-3.63,3.53-6.04,4.62-2.4,1.09-5.2,1.63-8.39,1.63s-5.73-.54-8.09-1.61c-2.36-1.08-4.36-2.61-6-4.6-1.63-1.99-2.88-4.36-3.73-7.11-.85-2.75-1.28-5.81-1.28-9.19,0-4.65.78-8.65,2.33-12.02,1.55-3.36,3.79-5.94,6.7-7.73,2.91-1.79,6.4-2.69,10.46-2.69s7.7.95,10.5,2.85c2.8,1.9,4.91,4.54,6.32,7.91,1.41,3.37,2.11,7.27,2.11,11.68ZM332.51,180.09c0,3.8.54,7.12,1.63,9.96,1.09,2.84,2.74,5.06,4.96,6.66,2.22,1.59,5.03,2.39,8.43,2.39s6.34-.8,8.57-2.39c2.23-1.59,3.88-3.83,4.94-6.7,1.06-2.87,1.59-6.18,1.59-9.92s-.51-6.88-1.51-9.72c-1.01-2.84-2.6-5.08-4.78-6.72-2.18-1.63-5.02-2.45-8.53-2.45-5.02,0-8.83,1.67-11.42,5.02s-3.89,7.97-3.89,13.87Z" style="stroke-width: 0px;"/>
      <path d="M378.82,139.8v17.61c0,1.51-.03,3.18-.08,4.98-.05,1.81-.11,3.31-.16,4.5h.24c1.04-2.68,2.84-4.9,5.42-6.66,2.58-1.75,5.79-2.63,9.64-2.63,5.63,0,9.98,1.9,13.05,5.7,3.07,3.8,4.6,9.37,4.6,16.7,0,4.49-.69,8.43-2.07,11.82-1.38,3.39-3.43,6.03-6.16,7.93-2.72,1.9-6.13,2.85-10.22,2.85-3.69,0-6.71-.78-9.05-2.33-2.34-1.55-4.04-3.5-5.1-5.84h-.32l-.76,7.37h-3.07v-62.01h4.03ZM393.45,161.12c-3.43,0-6.22.74-8.37,2.21s-3.73,3.62-4.74,6.44c-1.01,2.82-1.51,6.26-1.51,10.32v.64c0,5.98,1.09,10.53,3.27,13.67,2.18,3.14,5.71,4.7,10.6,4.7s8.49-1.65,10.98-4.96c2.48-3.31,3.73-8.02,3.73-14.13s-1.16-10.95-3.47-14.13c-2.31-3.17-5.81-4.76-10.48-4.76Z" style="stroke-width: 0px;"/>
      <path d="M458.22,180.09c0,3.35-.41,6.4-1.24,9.15-.82,2.75-2.05,5.12-3.67,7.11-1.62,1.99-3.63,3.53-6.04,4.62-2.4,1.09-5.2,1.63-8.39,1.63s-5.73-.54-8.09-1.61c-2.36-1.08-4.36-2.61-6-4.6-1.63-1.99-2.88-4.36-3.73-7.11-.85-2.75-1.28-5.81-1.28-9.19,0-4.65.78-8.65,2.33-12.02,1.55-3.36,3.79-5.94,6.7-7.73,2.91-1.79,6.4-2.69,10.46-2.69s7.7.95,10.5,2.85c2.8,1.9,4.91,4.54,6.32,7.91,1.41,3.37,2.11,7.27,2.11,11.68ZM423.95,180.09c0,3.8.54,7.12,1.63,9.96,1.09,2.84,2.74,5.06,4.96,6.66,2.22,1.59,5.03,2.39,8.43,2.39s6.34-.8,8.57-2.39c2.23-1.59,3.88-3.83,4.94-6.7,1.06-2.87,1.59-6.18,1.59-9.92s-.51-6.88-1.51-9.72c-1.01-2.84-2.6-5.08-4.78-6.72-2.18-1.63-5.02-2.45-8.53-2.45-5.02,0-8.83,1.67-11.42,5.02-2.59,3.35-3.89,7.97-3.89,13.87Z" style="stroke-width: 0px;"/>
      <path d="M480.71,199.14c1.25,0,2.41-.09,3.49-.28,1.08-.19,2.03-.42,2.85-.72v3.35c-.85.29-1.85.55-2.99.78-1.14.23-2.4.34-3.79.34-2.44,0-4.48-.46-6.1-1.37-1.62-.92-2.84-2.31-3.67-4.18-.82-1.87-1.24-4.26-1.24-7.15v-28.06h-6.46v-2.39l6.42-1.24,1.39-10.2h2.67v10.48h13.51v3.35h-13.51v27.82c0,3.11.58,5.47,1.73,7.07,1.16,1.61,3.05,2.41,5.68,2.41Z" style="stroke-width: 0px;"/>
      <path d="M497.22,142.47c1.01,0,1.75.3,2.23.9s.72,1.4.72,2.41-.24,1.81-.72,2.39c-.48.58-1.22.88-2.23.88-.96,0-1.67-.29-2.15-.88-.48-.58-.72-1.38-.72-2.39s.24-1.81.72-2.41c.48-.6,1.2-.9,2.15-.9ZM499.18,158.49v43.32h-4.03v-43.32h4.03Z" style="stroke-width: 0px;"/>
      <path d="M529.84,202.6c-4.3,0-7.94-.9-10.9-2.69-2.96-1.79-5.19-4.36-6.7-7.69-1.5-3.33-2.25-7.29-2.25-11.86s.86-8.83,2.59-12.21c1.73-3.39,4.16-5.98,7.29-7.79,3.13-1.81,6.81-2.71,11.04-2.71,2.07,0,4,.19,5.78.56,1.78.37,3.39.89,4.82,1.55l-1.08,3.55c-1.49-.66-3.07-1.17-4.74-1.51-1.67-.35-3.28-.52-4.82-.52-3.56,0-6.58.78-9.07,2.33-2.48,1.55-4.38,3.76-5.7,6.62-1.32,2.86-1.97,6.22-1.97,10.1,0,3.64.56,6.86,1.67,9.66,1.12,2.8,2.83,5.01,5.14,6.62,2.31,1.61,5.27,2.41,8.89,2.41,2.1,0,4.1-.21,6-.64,1.9-.42,3.63-.97,5.2-1.63v3.67c-1.41.64-3.04,1.16-4.88,1.57-1.85.41-3.95.62-6.32.62Z" style="stroke-width: 0px;"/>
      <path d="M577.19,190.45c0,2.58-.64,4.78-1.93,6.6-1.29,1.82-3.17,3.2-5.64,4.14-2.47.94-5.51,1.41-9.13,1.41-3,0-5.69-.27-8.05-.8-2.36-.53-4.34-1.18-5.94-1.95v-3.99c1.99.98,4.2,1.78,6.62,2.39,2.42.61,4.9.92,7.45.92,4.46,0,7.68-.76,9.64-2.27,1.97-1.51,2.95-3.59,2.95-6.22,0-1.73-.49-3.15-1.45-4.28-.97-1.13-2.36-2.11-4.16-2.93-1.81-.82-3.99-1.66-6.54-2.51-2.66-.9-5.02-1.8-7.07-2.69-2.06-.89-3.67-2.07-4.84-3.55-1.17-1.47-1.75-3.49-1.75-6.04,0-3.48,1.39-6.19,4.18-8.13,2.79-1.94,6.54-2.91,11.24-2.91,2.6,0,5.03.25,7.27.74,2.24.49,4.28,1.12,6.12,1.89l-1.43,3.43c-1.65-.77-3.55-1.39-5.7-1.87s-4.3-.72-6.46-.72c-3.53,0-6.3.62-8.29,1.87-1.99,1.25-2.99,3.08-2.99,5.5,0,1.86.48,3.31,1.43,4.36.96,1.05,2.32,1.93,4.1,2.63,1.78.7,3.89,1.48,6.34,2.33,2.52.88,4.85,1.79,6.99,2.75,2.14.96,3.85,2.19,5.12,3.71,1.28,1.51,1.91,3.57,1.91,6.18Z" style="stroke-width: 0px;"/>
      <path d="M608.06,201.81v-58.26h4.1v58.26h-4.1Z" style="stroke-width: 0px;"/>
      <path d="M645.54,157.65c4.86,0,8.59,1.28,11.2,3.83,2.6,2.55,3.91,6.55,3.91,12v28.33h-3.99v-28.1c0-4.3-.98-7.47-2.95-9.48-1.97-2.02-4.82-3.03-8.57-3.03-4.76,0-8.39,1.39-10.9,4.16-2.51,2.78-3.77,6.97-3.77,12.57v23.87h-4.03v-43.32h3.27l.6,7.89h.24c.77-1.62,1.83-3.09,3.17-4.4,1.34-1.32,3-2.36,4.96-3.15,1.97-.78,4.25-1.18,6.85-1.18Z" style="stroke-width: 0px;"/>
      <path d="M700.59,190.45c0,2.58-.64,4.78-1.93,6.6-1.29,1.82-3.17,3.2-5.64,4.14-2.47.94-5.51,1.41-9.13,1.41-3,0-5.69-.27-8.05-.8-2.36-.53-4.34-1.18-5.94-1.95v-3.99c1.99.98,4.2,1.78,6.62,2.39,2.42.61,4.9.92,7.45.92,4.46,0,7.68-.76,9.64-2.27,1.97-1.51,2.95-3.59,2.95-6.22,0-1.73-.49-3.15-1.45-4.28-.97-1.13-2.36-2.11-4.16-2.93-1.81-.82-3.99-1.66-6.54-2.51-2.66-.9-5.02-1.8-7.07-2.69-2.06-.89-3.67-2.07-4.84-3.55-1.17-1.47-1.75-3.49-1.75-6.04,0-3.48,1.39-6.19,4.18-8.13,2.79-1.94,6.54-2.91,11.24-2.91,2.6,0,5.03.25,7.27.74,2.24.49,4.28,1.12,6.12,1.89l-1.43,3.43c-1.65-.77-3.55-1.39-5.7-1.87s-4.3-.72-6.46-.72c-3.53,0-6.3.62-8.29,1.87-1.99,1.25-2.99,3.08-2.99,5.5,0,1.86.48,3.31,1.43,4.36.96,1.05,2.32,1.93,4.1,2.63,1.78.7,3.89,1.48,6.34,2.33,2.52.88,4.85,1.79,6.99,2.75,2.14.96,3.85,2.19,5.12,3.71s1.91,3.57,1.91,6.18Z" style="stroke-width: 0px;"/>
      <path d="M722.08,199.14c1.25,0,2.41-.09,3.49-.28,1.08-.19,2.03-.42,2.85-.72v3.35c-.85.29-1.85.55-2.99.78-1.14.23-2.4.34-3.79.34-2.44,0-4.48-.46-6.1-1.37-1.62-.92-2.84-2.31-3.67-4.18-.82-1.87-1.24-4.26-1.24-7.15v-28.06h-6.46v-2.39l6.42-1.24,1.39-10.2h2.67v10.48h13.51v3.35h-13.51v27.82c0,3.11.58,5.47,1.73,7.07,1.16,1.61,3.05,2.41,5.68,2.41Z" style="stroke-width: 0px;"/>
      <path d="M738.59,142.47c1.01,0,1.75.3,2.23.9.48.6.72,1.4.72,2.41s-.24,1.81-.72,2.39c-.48.58-1.22.88-2.23.88-.96,0-1.67-.29-2.15-.88-.48-.58-.72-1.38-.72-2.39s.24-1.81.72-2.41c.48-.6,1.2-.9,2.15-.9ZM740.54,158.49v43.32h-4.03v-43.32h4.03Z" style="stroke-width: 0px;"/>
      <path d="M765.54,199.14c1.25,0,2.41-.09,3.49-.28,1.08-.19,2.03-.42,2.85-.72v3.35c-.85.29-1.85.55-2.99.78-1.14.23-2.4.34-3.79.34-2.44,0-4.48-.46-6.1-1.37-1.62-.92-2.84-2.31-3.67-4.18-.82-1.87-1.24-4.26-1.24-7.15v-28.06h-6.46v-2.39l6.42-1.24,1.39-10.2h2.67v10.48h13.51v3.35h-13.51v27.82c0,3.11.58,5.47,1.73,7.07,1.16,1.61,3.05,2.41,5.68,2.41Z" style="stroke-width: 0px;"/>
      <path d="M813.66,158.49v43.32h-3.27l-.6-7.81h-.24c-.74,1.59-1.79,3.04-3.15,4.34-1.35,1.3-3.02,2.34-4.98,3.11-1.97.77-4.25,1.16-6.85,1.16-3.32,0-6.1-.58-8.35-1.73-2.25-1.16-3.94-2.9-5.08-5.24-1.14-2.34-1.71-5.26-1.71-8.77v-28.37h4.03v27.98c0,4.33.98,7.52,2.93,9.56,1.95,2.05,4.82,3.07,8.59,3.07,3.19,0,5.86-.61,8.03-1.83,2.16-1.22,3.81-3.07,4.94-5.56,1.13-2.48,1.69-5.59,1.69-9.31v-23.91h4.03Z" style="stroke-width: 0px;"/>
      <path d="M838.74,199.14c1.25,0,2.41-.09,3.49-.28,1.08-.19,2.03-.42,2.85-.72v3.35c-.85.29-1.85.55-2.99.78-1.14.23-2.41.34-3.79.34-2.45,0-4.48-.46-6.1-1.37-1.62-.92-2.84-2.31-3.67-4.18-.82-1.87-1.24-4.26-1.24-7.15v-28.06h-6.46v-2.39l6.42-1.24,1.39-10.2h2.67v10.48h13.51v3.35h-13.51v27.82c0,3.11.58,5.47,1.73,7.07,1.16,1.61,3.05,2.41,5.68,2.41Z" style="stroke-width: 0px;"/>
      <path d="M869.6,157.65c3.69,0,6.77.86,9.23,2.59,2.46,1.73,4.29,4.09,5.5,7.09,1.21,3,1.81,6.44,1.81,10.32v2.91h-31.28c0,5.95,1.37,10.52,4.12,13.71,2.75,3.19,6.69,4.78,11.82,4.78,2.68,0,5.01-.22,6.99-.66,1.98-.44,4.18-1.19,6.6-2.25v3.71c-2.13.96-4.25,1.65-6.38,2.09-2.13.44-4.57.66-7.33.66-4.38,0-8.06-.91-11.02-2.73-2.96-1.82-5.19-4.39-6.7-7.71-1.5-3.32-2.25-7.2-2.25-11.64s.72-8.22,2.17-11.68c1.45-3.45,3.57-6.18,6.38-8.19,2.8-2.01,6.25-3.01,10.34-3.01ZM869.56,161.12c-4.14,0-7.5,1.37-10.06,4.12-2.56,2.75-4.07,6.72-4.52,11.9h26.98c0-3.16-.45-5.95-1.35-8.37-.9-2.42-2.27-4.3-4.08-5.64-1.82-1.34-4.14-2.01-6.95-2.01Z" style="stroke-width: 0px;"/>
    </g>
    <g>
      <polygon points="521.31 84.95 521.31 114.78 526.28 114.78 526.28 116.75 506.39 116.75 506.39 114.78 511.36 114.78 511.36 87.05 507.5 87.05 507.5 84.95 521.31 84.95" style="fill: #c41230; stroke-width: 0px;"/>
      <path d="M324.98,65.69h-1.8c-.07,1.53-.88,2.19-2.41,2.19-3.07,0-7.55-3.73-12.81-3.73-14.98,0-24.03,14.76-24.03,27.76s8.62,26.01,23.08,26.01c8.77,0,12.05-4.16,14.39-4.16,1.53,0,1.82,1.35,1.82,3h1.98v-17.9h-1.98l-.44,2.48c-1.02,5.92-5.62,14.66-15.04,14.66-8.33,0-11.54-7.2-11.54-24.96,0-18.63,4.38-24.9,11.76-24.9,8.33,0,14.06,9.33,15.22,16.78h1.8v-17.24Z" style="fill: #c41230; stroke-width: 0px;"/>
      <path d="M350.6,108.18c-.14,3.82-2.3,6.95-5.69,6.95-4.9,0-5.12-4.13-5.12-7.3,0-3.82.43-6.34,5.12-6.84l5.69-.58v7.77ZM363.75,110.56c0,1.87-1.23,4.03-2.05,4.03-1.3,0-1.59-1.37-1.59-3.6v-16.57c0-8.21-7.71-10.23-15.13-10.23s-12.47,3.53-12.47,7.56c0,2.52,1.44,4.68,4.69,4.68,2.74,0,4.39-1.8,4.39-4.32,0-3.67-3.81-3.71-3.81-3.8,0-1.63,4.24-2.16,6.69-2.16,5.4,0,6.12,1.99,6.12,6.32v6.05l-7.06.58c-6.56.5-13.69,2.24-13.69,9.73,0,6.27,5.62,8.79,11.17,8.79,2.81,0,7.78-1.08,9.66-4.54,1.3,3.03,3.96,4.54,7.21,4.54,4.68,0,7.71-2.81,7.71-7.06h-1.83Z" style="fill: #c41230; stroke-width: 0px;"/>
      <polygon points="1033.79 84.85 1033.79 114.67 1038.76 114.67 1038.76 116.65 1018.87 116.65 1018.87 114.67 1023.84 114.67 1023.84 86.95 1018.87 86.95 1018.87 84.85 1033.79 84.85" style="fill: #c41230; stroke-width: 0px;"/>
      <path d="M601.83,100.23l11.94-34.15h16.47l-.05,2.04h-4.71v46.65h4.71v1.99h-19.78v-1.99h4.81v-46.14h-.14l-16.79,48.13h-1.95l-17.22-48.99h-.14v40.85c0,5.84,1.51,6.15,5.4,6.15h.22v1.99h-12.46v-1.99h0c4.11,0,4.88-2.4,4.88-5.5v-41.15h-4.88v-2.08h18.08l11.62,34.2Z" style="fill: #c41230; stroke-width: 0px;"/>
      <path d="M641.7,97.36v-4.84c0-4.83,2.09-6.34,4.54-6.34,3.46,0,4.54,2.38,4.54,6.34v4.84h-9.08ZM641.7,99.32h19.89c-.07-7.78-7.28-15.27-14.84-15.13-8.5,0-15.85,7.35-15.85,17.08s6.84,16.35,16.07,16.35,13.26-5.48,14.84-12.61h-1.96c-1.58,6.7-5.1,10.51-10.72,10.51-6.7,0-7.42-5.25-7.42-10.15v-6.05Z" style="fill: #c41230; stroke-width: 0px;"/>
      <path d="M941.03,97.25v-4.84c0-4.83,2.09-6.34,4.54-6.34,3.46,0,4.54,2.38,4.54,6.34v4.84h-9.08ZM941.03,99.21h19.89c-.07-7.78-7.28-15.27-14.84-15.13-8.5,0-15.85,7.35-15.85,17.08s6.84,16.35,16.07,16.35,13.26-5.48,14.84-12.61h-1.96c-1.58,6.7-5.1,10.51-10.72,10.51-6.7,0-7.42-5.25-7.42-10.15v-6.05Z" style="fill: #c41230; stroke-width: 0px;"/>
      <polygon points="661.72 66.15 661.72 67.98 666.69 67.98 666.69 114.72 661.72 114.72 661.72 116.76 681.6 116.76 681.6 114.72 676.63 114.72 676.63 66.15 661.72 66.15" style="fill: #c41230; stroke-width: 0px;"/>
      <polygon points="682.99 66.15 682.99 67.98 687.96 67.98 687.96 114.72 682.99 114.72 682.99 116.76 702.88 116.76 702.88 114.72 697.91 114.72 697.91 66.15 682.99 66.15" style="fill: #c41230; stroke-width: 0px;"/>
      <path d="M725.74,108.03c0,5.4-2.23,7.64-5.91,7.64s-5.91-2.23-5.91-7.64v-14.18c0-5.41,2.23-7.64,5.91-7.64s5.91,2.23,5.91,7.64v14.18ZM736.98,100.91c0-9.87-7.64-16.71-17.15-16.71s-17.15,6.84-17.15,16.71,7.64,16.72,17.15,16.72,17.15-6.84,17.15-16.72" style="fill: #c41230; stroke-width: 0px;"/>
      <path d="M788.69,67.8h5.04v32.01c0,11.17,7.71,17.94,19.45,17.94,13.26,0,19.02-6.99,19.02-17.58v-27.36c0-4.18,1.15-5,3.75-5h1.46v-1.93h-12.67v1.93h.91c3.67,0,4.18,1.11,4.18,5.29v27.8c0,9.8-6.08,14.27-12.25,14.27-10.52,0-12.61-7.06-13.23-16.29v-31.07h4.72v-1.93h-20.37v1.93Z" style="fill: #c41230; stroke-width: 0px;"/>
      <path d="M913.52,117.46h1.94l10.67-25.22c2.16-4.71,3.31-5.31,4.97-5.38h.65v-1.97h-11.24v1.99h1.37c2.09,0,3.05-.13,3.05,1.74,0,1.16-.37,2.29-1.22,4.38l-4.9,11.53-7.84-17.64h4v-1.99h-18.08v1.99h3.39l13.26,30.57Z" style="fill: #c41230; stroke-width: 0px;"/>
      <path d="M993.79,117.46h1.71c.36-1.15,1.1-1.73,2.54-1.73,1.87,0,4.11,1.73,8.14,1.73,6.85,0,11.53-5.91,11.53-11.81,0-8.79-6.05-9.44-13.76-10.52-4.04-.58-6.32-1.15-6.32-4.32,0-3.39,2.95-4.81,6.84-4.81,5.41,0,7.5,3.58,9.3,8.27h1.7v-10.23h-1.63c0,.87-.75,1.59-2.11,1.59-2.31,0-4.18-1.59-7.5-1.59-7.2,0-10.74,6.13-10.74,10.74,0,9.3,7.06,10.09,12.54,10.74,5.19.65,7.06.98,7.06,4.29,0,3.82-3.17,5.56-7.06,5.56-5.47,0-9.24-4.73-10.54-9.99h-1.71v12.1Z" style="fill: #c41230; stroke-width: 0px;"/>
      <polygon points="894.24 84.85 894.24 114.67 899.21 114.67 899.21 116.65 879.32 116.65 879.32 114.67 884.29 114.67 884.29 86.95 879.32 86.95 879.32 84.85 894.24 84.85" style="fill: #c41230; stroke-width: 0px;"/>
      <path d="M884.3,74.9c0,2.76,2.21,4.96,4.96,4.96s4.96-2.21,4.96-4.96-2.2-4.96-4.96-4.96-4.96,2.21-4.96,4.96" style="fill: #c41230; stroke-width: 0px;"/>
      <path d="M1023.83,74.9c0,2.76,2.21,4.96,4.96,4.96s4.96-2.21,4.96-4.96-2.2-4.96-4.96-4.96-4.96,2.21-4.96,4.96" style="fill: #c41230; stroke-width: 0px;"/>
      <path d="M450.44,97.35v-4.84c0-4.83,2.09-6.34,4.54-6.34,3.46,0,4.54,2.38,4.54,6.34v4.84h-9.08ZM450.44,99.31h19.89c-.07-7.78-7.28-15.27-14.84-15.13-8.5,0-15.85,7.35-15.85,17.08s6.84,16.35,16.07,16.35,13.26-5.48,14.84-12.61h-1.96c-1.58,6.7-5.1,10.51-10.72,10.51-6.7,0-7.42-5.25-7.42-10.15v-6.05Z" style="fill: #c41230; stroke-width: 0px;"/>
      <path d="M537.43,97.35v-4.84c0-4.83,2.09-6.34,4.54-6.34,2.58,0,4.54,1.49,4.54,6.34v4.84h-9.08ZM537.43,99.31h19.89c-.07-7.78-7.28-15.27-14.84-15.13-8.5,0-15.85,7.35-15.85,17.08s6.84,16.35,16.07,16.35,13.26-5.48,14.84-12.61h-1.96c-1.58,6.7-5.1,10.51-10.72,10.51-6.7,0-7.42-5.25-7.42-10.15v-6.05Z" style="fill: #c41230; stroke-width: 0px;"/>
      <path d="M872.94,114.7v-19.45c0-7.78-3.31-11.42-10.16-11.42-4.83,0-9.73,2.77-11.67,6.95h0v-5.84h-14.91v1.94h4.97v27.81h-4.97v1.95h19.17v-1.95h-4.25v-19.01c.62-2.67,4.01-8.85,7.95-8.85,2.62,0,3.94.9,3.94,5.74v22.12h-4.11v1.95h19.02v-1.95h-4.97Z" style="fill: #c41230; stroke-width: 0px;"/>
      <path d="M751.87,85.06v5.84h0c1.95-4.18,6.84-6.95,11.67-6.95,6.84,0,10.16,3.64,10.16,11.42v19.45h4.97v1.95h-19.02v-1.95h4.11v-22.12c0-4.84-1.33-5.74-3.94-5.74-3.94,0-7.33,6.17-7.95,8.85v19.01s4.25,0,4.25,0v1.95h-19.17v-1.95h4.97v-27.81h-4.97v-1.94h14.91Z" style="fill: #c41230; stroke-width: 0px;"/>
      <path d="M434.58,114.8v-19.45c0-7.78-3.31-11.42-10.16-11.42-4.83,0-9.73,2.77-11.67,6.95h0v-5.84h-14.91v1.94h4.97v27.81h-4.97v1.95h19.17v-1.95h-4.25v-19.01c.62-2.67,4.01-8.85,7.95-8.85,2.62,0,3.94.9,3.94,5.74v22.12h-4.11v1.95h19.02v-1.95h-4.97Z" style="fill: #c41230; stroke-width: 0px;"/>
      <path d="M511.4,75.1c0,2.76,2.21,4.96,4.96,4.96s4.96-2.21,4.96-4.96-2.2-4.96-4.96-4.96-4.96,2.21-4.96,4.96" style="fill: #c41230; stroke-width: 0px;"/>
      <path d="M1082.15,84.86v2.09c3.07-.01,4.42.28,4.42,1.67,0,1.16-.37,2.29-1.22,4.38l-4.9,11.53-7.81-17.58h4.09v-2.1h-24.84v-15.45h-1.3c0,7.63-5.19,15.49-12.47,15.49v2.06h3.82v22.29c0,6.84,5.9,8.21,7.92,8.21,4.4,0,7.35-1.8,9.58-5.55l-1.54-.85c-.86,1.3-2.02,3.02-3.82,3.02-1.44,0-2.2-1.02-2.2-3.4v-23.74h10.04l13.17,30.36-4.55,10.73v.02s-.01,0-.02,0h0c-.1.2-.3.34-.55.34-.26,0-.48-.17-.56-.41,0-.01,0-.02,0-.03-.59-2.09-2.47-3.61-4.76-3.61-2.76,0-4.96,2.21-4.96,4.96,0,1.94,1.1,3.59,2.71,4.41,0,0-.02,0-.02,0,.05.03.11.05.16.07.1.05.19.09.29.13.56.23,1.16.37,1.81.38,4.18.35,6.32-2.73,7.8-5.88.33-.71.64-1.43.92-2.11.63-1.52,1.74-4.14,3.04-7.2h0s1.25-2.93,1.25-2.93h0s10.13-23.96,10.13-23.96c2.16-4.71,2.99-5.31,5.61-5.31h0v-2.07h-11.24Z" style="fill: #c41230; stroke-width: 0px;"/>
      <path d="M390.58,83.85c-4.61,0-8.14,3.17-9.51,6.77h-.14v-5.49h-14.77v2.02h4.97v27.72h-4.97v1.97h21.54v-1.97h-6.63v-15.52c0-4.63,1.21-9.38,4.26-11.99.18-.13.41-.17.62-.06.24.12.35.37.32.61h0c-.2.57-.35,1.24-.39,2.06-.1,2.61,2.09,4.68,4.9,4.68,3.46,0,5.48-2.52,5.48-5.26,0-3.46-2.31-5.55-5.69-5.55Z" style="fill: #c41230; stroke-width: 0px;"/>
      <path d="M499.02,86.19c.14-.04.32-.12.43,0s.11.25.03.39h0c-.44.75-.6,1.66-.26,2.66.33.97,1.17,1.74,2.18,1.96,2.06.47,3.85-1.05,3.85-3.02,0-1.27-.79-2.24-1.7-2.81s-2-.84-3.17-.84c-1.92,0-3.88,1.03-5.29,2.26,0,0,0,0,0-.01-.32-.23-.66-.46-1.02-.67-1.98-1.15-4.57-1.93-7.98-1.93-6.05,0-12.54,3.96-12.54,10.52,0,3.96,2.16,7.06,5.98,8.79v.14c-2.81.36-7.21,2.3-7.21,8.29,0,3.6,1.66,6.34,4.69,7.21v.14c-2.88.79-6.2,3.68-6.2,7.13,0,5.33,6.27,9.44,14.27,9.44,10.01,0,16.57-6.77,16.57-15.56,0-6.99-3.46-10.16-10.52-10.01h-11.96c-1.8,0-3-.07-3-2.02,0-1.8,2.76-3.75,5.5-3.75.48,0,1.26.37,1.46.43.87.28,1.81.43,2.96.43,6.2,0,12.82-3.53,12.82-10.38,0-2.12-.92-5.01-2.63-6.81-.1-.11-.1-.28.02-.37.69-.55,1.5-1.01,1.88-1.23.31-.17.55-.3.85-.39h.02ZM489.45,119.35c7.21,0,9.12.3,9.12,4.7,0,5.26-6.44,10.09-13.72,10.09-6.49,0-9.6-3.98-9.74-7.43,0-3.17,1.58-5.26,3.52-7.35h10.82ZM490.67,94.73c0,8.38-1.94,8.65-4.54,8.65-2.88,0-4.4-.56-4.4-8.87,0-5.84.65-8.32,4.4-8.32,3.38,0,4.47.22,4.54,8.51v.03Z" style="fill: #c41230; stroke-width: 0px;"/>
      <path d="M986.15,83.56c-4.61,0-8.14,3.17-9.51,6.77h-.14v-5.49h-14.77v2.02h4.97v27.72h-4.97v1.97h21.54v-1.97h-6.63v-15.52c0-4.63,1.21-9.37,4.25-11.99.18-.12.41-.16.62-.06.24.12.35.37.32.61v.02c-.18.56-.34,1.22-.37,2.03-.1,2.61,2.09,4.68,4.9,4.68,3.46,0,5.48-2.52,5.48-5.26,0-3.46-2.31-5.55-5.69-5.55Z" style="fill: #c41230; stroke-width: 0px;"/>
    </g>
  </g>
</svg>